<svg width="81" height="21" viewBox="0 0 81 21" fill="none" xmlns="http://www.w3.org/2000/svg">
<path d="M17.816 14V5.6H19.352V12.8H23.072V14H17.816ZM24.4854 14L27.5574 5.6H29.2854L32.3574 14H30.7254L30.0534 12.056H26.7774L26.0934 14H24.4854ZM27.1974 10.856H29.6334L28.4094 7.364L27.1974 10.856ZM36.2354 14.144C35.4194 14.144 34.7634 13.916 34.2674 13.46C33.7794 12.996 33.5354 12.34 33.5354 11.492H35.0714C35.0794 11.884 35.1714 12.196 35.3474 12.428C35.5234 12.66 35.8074 12.776 36.1994 12.776C36.5674 12.776 36.8354 12.668 37.0034 12.452C37.1714 12.228 37.2554 11.936 37.2554 11.576V5.6H38.7914V11.576C38.7914 12.4 38.5594 13.036 38.0954 13.484C37.6394 13.924 37.0194 14.144 36.2354 14.144ZM40.1229 14L43.1949 5.6H44.9229L47.9949 14H46.3629L45.6909 12.056H42.4149L41.7309 14H40.1229ZM42.8349 10.856H45.2709L44.0469 7.364L42.8349 10.856ZM49.6769 14V5.6H52.7609C53.4329 5.6 53.9849 5.716 54.4169 5.948C54.8569 6.172 55.1849 6.48 55.4009 6.872C55.6169 7.256 55.7249 7.684 55.7249 8.156C55.7249 8.668 55.5889 9.136 55.3169 9.56C55.0529 9.984 54.6369 10.292 54.0689 10.484L55.8089 14H54.0449L52.4849 10.688H51.2129V14H49.6769ZM51.2129 9.56H52.6649C53.1769 9.56 53.5529 9.436 53.7929 9.188C54.0329 8.94 54.1529 8.612 54.1529 8.204C54.1529 7.804 54.0329 7.484 53.7929 7.244C53.5609 7.004 53.1809 6.884 52.6529 6.884H51.2129V9.56ZM59.7095 14V6.836H57.2615V5.6H63.7055V6.836H61.2455V14H59.7095ZM65.4433 14V5.6H66.9793V9.092H70.7473V5.6H72.2833V14H70.7473V10.34H66.9793V14H65.4433ZM74.516 14V5.6H80V6.836H76.052V9.14H79.64V10.34H76.052V12.764H80V14H74.516Z" fill="black"/>
<path d="M18.4365 19L18.4834 18.291L18.5684 16.085L18.5801 15.458L18.583 15.001L19.166 15.0039L19.834 15.001C20.1113 15.001 20.3135 15.0381 20.4404 15.1123C20.5674 15.1846 20.667 15.2891 20.7393 15.4258C20.8135 15.5605 20.8506 15.7158 20.8506 15.8916C20.8506 16.1104 20.7949 16.3115 20.6836 16.4951C20.5742 16.6768 20.4238 16.8154 20.2324 16.9111C20.041 17.0068 19.8213 17.0547 19.5732 17.0547C19.542 17.0547 19.4951 17.0527 19.4326 17.0488L20.8359 19C20.7871 18.998 20.7363 18.9971 20.6836 18.9971C20.6289 18.9971 20.5781 18.998 20.5312 19L20.1475 18.4199L19.0312 16.8408C19.2051 16.8721 19.3555 16.8877 19.4824 16.8877C19.6367 16.8877 19.7861 16.8672 19.9307 16.8262C20.0752 16.7832 20.1992 16.7197 20.3027 16.6357C20.4062 16.5518 20.4863 16.4473 20.543 16.3223C20.5996 16.1953 20.6279 16.0576 20.6279 15.9092C20.6279 15.8096 20.6143 15.7168 20.5869 15.6309C20.5596 15.5449 20.5156 15.4697 20.4551 15.4053C20.3945 15.3389 20.332 15.292 20.2676 15.2646C20.2051 15.2373 20.124 15.2178 20.0244 15.2061C19.9248 15.1924 19.8193 15.1855 19.708 15.1855L19.2275 15.1885C19.1221 15.1885 18.9873 15.1865 18.8232 15.1826C18.7588 16.7275 18.7217 18 18.7119 19C18.6631 18.998 18.6172 18.9971 18.5742 18.9971C18.5312 18.9971 18.4854 18.998 18.4365 19ZM24.705 18.7158C24.6894 18.7881 24.6777 18.8613 24.6698 18.9355C24.5077 18.9824 24.3622 19.0146 24.2333 19.0322C24.1044 19.0518 23.9726 19.0615 23.8378 19.0615C23.6034 19.0615 23.3954 19.0303 23.2138 18.9678C23.0341 18.9033 22.8798 18.7979 22.7509 18.6514C22.622 18.5029 22.5302 18.3369 22.4755 18.1533C22.4208 17.9697 22.3935 17.7744 22.3935 17.5674C22.3935 17.2959 22.4404 17.042 22.5341 16.8057C22.6279 16.5674 22.7821 16.3701 22.997 16.2139C23.2118 16.0576 23.4784 15.9795 23.7968 15.9795C24.0155 15.9795 24.2138 16.0205 24.3915 16.1025C24.5693 16.1826 24.707 16.3145 24.8046 16.498C24.9042 16.6816 24.954 16.8994 24.954 17.1514C24.954 17.1982 24.9521 17.2432 24.9482 17.2861L22.6308 17.2891C22.621 17.416 22.6161 17.5117 22.6161 17.5762C22.6161 17.7617 22.6435 17.9414 22.6982 18.1152C22.7529 18.2891 22.8349 18.4346 22.9443 18.5518C23.0556 18.6689 23.1884 18.7559 23.3427 18.8125C23.497 18.8691 23.6601 18.8975 23.832 18.8975C24.0937 18.8975 24.3847 18.8369 24.705 18.7158ZM22.6571 17.1279L24.7402 17.1309C24.7382 16.9961 24.7304 16.8926 24.7167 16.8203C24.703 16.748 24.6777 16.6738 24.6405 16.5977C24.6034 16.5215 24.5585 16.4561 24.5058 16.4014C24.455 16.3447 24.3945 16.2979 24.3241 16.2607C24.2558 16.2217 24.1786 16.1924 24.0927 16.1729C24.0068 16.1533 23.9169 16.1436 23.8232 16.1436C23.7196 16.1436 23.6181 16.1553 23.5185 16.1787C23.4189 16.2021 23.328 16.2344 23.246 16.2754C23.164 16.3164 23.0868 16.3691 23.0146 16.4336C22.9443 16.4961 22.8857 16.5645 22.8388 16.6387C22.7939 16.7129 22.7587 16.7842 22.7333 16.8525C22.7099 16.9189 22.6845 17.0107 22.6571 17.1279ZM27.37 19C27.2606 18.6816 27.1327 18.3271 26.9862 17.9365L26.2772 16.041C26.328 16.043 26.3719 16.0439 26.409 16.0439C26.4481 16.0439 26.492 16.043 26.5409 16.041L26.617 16.29C26.6327 16.3369 26.6493 16.3838 26.6668 16.4307L27.5252 18.833L28.6297 16.29L28.7264 16.041C28.7772 16.043 28.8211 16.0439 28.8582 16.0439C28.8973 16.0439 28.9412 16.043 28.9901 16.041L27.8094 18.625L27.6512 19C27.6024 18.998 27.5555 18.9971 27.5106 18.9971C27.4657 18.9971 27.4188 18.998 27.37 19ZM30.5037 15.291L30.5125 15.001C30.5613 15.0029 30.6111 15.0039 30.6619 15.0039C30.7127 15.0039 30.7625 15.0029 30.8113 15.001L30.8025 15.291C30.7537 15.2871 30.7039 15.2852 30.6531 15.2852C30.6023 15.2852 30.5525 15.2871 30.5037 15.291ZM30.3982 19C30.4197 18.707 30.4441 18.1963 30.4714 17.4678C30.5007 16.7393 30.5154 16.2637 30.5154 16.041C30.5662 16.043 30.6052 16.0439 30.6326 16.0439C30.6619 16.0439 30.7019 16.043 30.7527 16.041C30.7254 16.4121 30.698 16.918 30.6707 17.5586C30.6453 18.1992 30.6326 18.6797 30.6326 19C30.5818 18.998 30.5427 18.9971 30.5154 18.9971C30.488 18.9971 30.449 18.998 30.3982 19ZM34.7887 18.7158C34.7731 18.7881 34.7614 18.8613 34.7536 18.9355C34.5915 18.9824 34.446 19.0146 34.3171 19.0322C34.1882 19.0518 34.0563 19.0615 33.9216 19.0615C33.6872 19.0615 33.4792 19.0303 33.2975 18.9678C33.1179 18.9033 32.9636 18.7979 32.8346 18.6514C32.7057 18.5029 32.6139 18.3369 32.5593 18.1533C32.5046 17.9697 32.4772 17.7744 32.4772 17.5674C32.4772 17.2959 32.5241 17.042 32.6179 16.8057C32.7116 16.5674 32.8659 16.3701 33.0807 16.2139C33.2956 16.0576 33.5622 15.9795 33.8805 15.9795C34.0993 15.9795 34.2975 16.0205 34.4753 16.1025C34.653 16.1826 34.7907 16.3145 34.8884 16.498C34.988 16.6816 35.0378 16.8994 35.0378 17.1514C35.0378 17.1982 35.0358 17.2432 35.0319 17.2861L32.7145 17.2891C32.7048 17.416 32.6999 17.5117 32.6999 17.5762C32.6999 17.7617 32.7272 17.9414 32.7819 18.1152C32.8366 18.2891 32.9186 18.4346 33.028 18.5518C33.1393 18.6689 33.2721 18.7559 33.4264 18.8125C33.5807 18.8691 33.7438 18.8975 33.9157 18.8975C34.1774 18.8975 34.4684 18.8369 34.7887 18.7158ZM32.7409 17.1279L34.8239 17.1309C34.822 16.9961 34.8141 16.8926 34.8005 16.8203C34.7868 16.748 34.7614 16.6738 34.7243 16.5977C34.6872 16.5215 34.6423 16.4561 34.5895 16.4014C34.5387 16.3447 34.4782 16.2979 34.4079 16.2607C34.3395 16.2217 34.2624 16.1924 34.1764 16.1729C34.0905 16.1533 34.0007 16.1436 33.9069 16.1436C33.8034 16.1436 33.7018 16.1553 33.6022 16.1787C33.5026 16.2021 33.4118 16.2344 33.3298 16.2754C33.2477 16.3164 33.1706 16.3691 33.0983 16.4336C33.028 16.4961 32.9694 16.5645 32.9225 16.6387C32.8776 16.7129 32.8425 16.7842 32.8171 16.8525C32.7936 16.9189 32.7682 17.0107 32.7409 17.1279ZM37.4332 19L37.2984 18.5928L36.3609 16.041C36.4117 16.043 36.4518 16.0439 36.4811 16.0439C36.5104 16.0439 36.5504 16.043 36.6012 16.041L36.7184 16.4014L37.1754 17.6904L37.4947 18.5488C37.5221 18.6191 37.5621 18.7188 37.6148 18.8477L37.8961 18.1328L38.6754 16.041C38.7242 16.043 38.7691 16.0439 38.8102 16.0439C38.8531 16.0439 38.899 16.043 38.9479 16.041L39.7271 18.8477C40.2193 17.7793 40.6285 16.8438 40.9547 16.041C41.0074 16.043 41.0475 16.0439 41.0748 16.0439C41.1021 16.0439 41.1412 16.043 41.192 16.041L40.0523 18.5576L39.8648 19C39.7965 18.998 39.7428 18.9971 39.7037 18.9971C39.6627 18.9971 39.608 18.998 39.5396 19L39.402 18.4521L38.8834 16.5596C38.8658 16.501 38.8336 16.3984 38.7867 16.252L38.69 16.4863L37.8404 18.7773C37.8287 18.8066 37.8043 18.8809 37.7672 19C37.6988 18.998 37.6432 18.9971 37.6002 18.9971C37.5553 18.9971 37.4996 18.998 37.4332 19ZM42.3804 18.9443C42.3765 18.8506 42.3687 18.7676 42.357 18.6953C42.5112 18.7637 42.6568 18.8115 42.7935 18.8389C42.9302 18.8662 43.0552 18.8799 43.1685 18.8799C43.3189 18.8799 43.4468 18.8584 43.5523 18.8154C43.6597 18.7725 43.7407 18.709 43.7954 18.625C43.8501 18.541 43.8775 18.4531 43.8775 18.3613C43.8775 18.3203 43.8726 18.2812 43.8628 18.2441C43.855 18.2051 43.8413 18.167 43.8218 18.1299C43.8023 18.0908 43.7798 18.0557 43.7544 18.0244C43.731 17.9912 43.6968 17.9541 43.6519 17.9131C43.6089 17.8721 43.5581 17.8262 43.4995 17.7754C43.4409 17.7246 43.3491 17.6475 43.2241 17.5439C43.0991 17.4404 42.9956 17.3516 42.9136 17.2773C42.8335 17.2012 42.7661 17.125 42.7114 17.0488C42.6587 16.9707 42.6206 16.8994 42.5972 16.835C42.5757 16.7705 42.565 16.7051 42.565 16.6387C42.565 16.5254 42.6001 16.416 42.6704 16.3105C42.7427 16.2031 42.8452 16.1211 42.978 16.0645C43.1128 16.0078 43.2827 15.9795 43.4878 15.9795C43.6597 15.9795 43.853 16.002 44.0679 16.0469C44.0698 16.1328 44.0757 16.2158 44.0855 16.2959C43.9605 16.2432 43.8482 16.208 43.7486 16.1904C43.6509 16.1709 43.5513 16.1611 43.4497 16.1611C43.3228 16.1611 43.2056 16.1807 43.0982 16.2197C42.9907 16.2568 42.9097 16.3125 42.855 16.3867C42.8023 16.459 42.7759 16.5381 42.7759 16.624C42.7759 16.6709 42.7818 16.7148 42.7935 16.7559C42.8052 16.7969 42.8237 16.8389 42.8491 16.8818C42.8745 16.9229 42.9068 16.9658 42.9458 17.0107C42.9868 17.0537 43.0386 17.1045 43.1011 17.1631C43.1655 17.2197 43.2573 17.2988 43.3765 17.4004C43.4976 17.5 43.5874 17.5762 43.646 17.6289C43.7046 17.6797 43.7544 17.7266 43.7954 17.7695C43.8384 17.8125 43.8784 17.8604 43.9155 17.9131C43.9546 17.9639 43.9859 18.0137 44.0093 18.0625C44.0327 18.1113 44.0503 18.1611 44.062 18.2119C44.0737 18.2607 44.0796 18.3105 44.0796 18.3613C44.0796 18.4844 44.0435 18.6006 43.9712 18.71C43.8989 18.8193 43.7935 18.9053 43.6548 18.9678C43.5181 19.0303 43.353 19.0615 43.1597 19.0615C43.0874 19.0615 42.9966 19.0557 42.8872 19.0439C42.7798 19.0322 42.6929 19.0195 42.6265 19.0059C42.562 18.9941 42.48 18.9736 42.3804 18.9443Z" fill="black"/>
<rect width="10" height="10" rx="2" fill="url(#paint0_linear_9_13)"/>
<rect x="9" y="10" width="4" height="7" rx="1" fill="url(#paint1_linear_9_13)"/>
<rect x="11" y="4" width="3" height="5" rx="1" fill="url(#paint2_linear_9_13)"/>
<rect x="1" y="11" width="7" height="7" rx="1" fill="url(#paint3_linear_9_13)"/>
<circle cx="45.5" cy="18.5" r="0.5" fill="#00816A"/>
<defs>
<linearGradient id="paint0_linear_9_13" x1="9" y1="8.5" x2="2.5" y2="1.5" gradientUnits="userSpaceOnUse">
<stop stop-color="#1CB7AD"/>
<stop offset="1" stop-color="#034743"/>
</linearGradient>
<linearGradient id="paint1_linear_9_13" x1="11" y1="10" x2="11" y2="17" gradientUnits="userSpaceOnUse">
<stop stop-color="#04A99F"/>
<stop offset="1" stop-color="#1CB7AD" stop-opacity="0"/>
</linearGradient>
<linearGradient id="paint2_linear_9_13" x1="11" y1="8.75156" x2="17" y2="2" gradientUnits="userSpaceOnUse">
<stop stop-color="#1CB7AD"/>
<stop offset="0.913154" stop-color="#054D49"/>
</linearGradient>
<linearGradient id="paint3_linear_9_13" x1="6.5" y1="12" x2="2.5" y2="17.5" gradientUnits="userSpaceOnUse">
<stop stop-color="#1CB7AD"/>
<stop offset="1" stop-color="#1CB7AD" stop-opacity="0"/>
</linearGradient>
</defs>
</svg>
